#N canvas -46 26 1440 751 12;
#X declare -stdpath ./;
#X obj 0 0 cnv 19 3333 2222 empty empty empty 20 12 0 12 #dfdfdf #404040 0;
#X text 32 128 delay;
#X text 38 414 minisynth;
#N canvas 677 -1118 1351 719 seqnz 0;
#X obj 109 268 tgl 15 0 empty empty empty 17 7 0 10 #fcfcfc #000000 #000000 0 1;
#X obj 96 348 spigot;
#X obj 993 508 outlet;
#X obj 127 268 tgl 15 0 empty empty empty 17 7 0 10 #fcfcfc #000000 #000000 0 1;
#X obj 142 350 spigot;
#X obj 144 268 tgl 15 0 empty empty empty 17 7 0 10 #fcfcfc #000000 #000000 0 1;
#X obj 186 351 spigot;
#X obj 162 268 tgl 15 0 empty empty empty 17 7 0 10 #fcfcfc #000000 #000000 0 1;
#X obj 232 352 spigot;
#X obj 185 268 tgl 15 0 empty empty empty 17 7 0 10 #fcfcfc #000000 #000000 0 1;
#X obj 276 352 spigot;
#X obj 204 268 tgl 15 0 empty empty empty 17 7 0 10 #fcfcfc #000000 #000000 0 1;
#X obj 321 352 spigot;
#X obj 222 268 tgl 15 0 empty empty empty 17 7 0 10 #fcfcfc #000000 #000000 0 1;
#X obj 363 352 spigot;
#X obj 240 268 tgl 15 0 empty empty empty 17 7 0 10 #fcfcfc #000000 #000000 0 1;
#X obj 407 352 spigot;
#X obj 492 195 sel 1 2 3 4 5 6 7 8 9 10 11 12 13 14 15 16;
#X obj 22 158 metro 125;
#X floatatom 24 360 5 0 0 0 - - - 0;
#X obj 46 283 mod 16;
#X obj 452 352 spigot;
#X obj 282 268 tgl 15 0 empty empty empty 17 7 0 10 #fcfcfc #000000 #000000 0 1;
#X obj 496 352 spigot;
#X obj 301 268 tgl 15 0 empty empty empty 17 7 0 10 #fcfcfc #000000 #000000 0 1;
#X obj 541 352 spigot;
#X obj 319 268 tgl 15 0 empty empty empty 17 7 0 10 #fcfcfc #000000 #000000 0 1;
#X obj 583 352 spigot;
#X obj 343 268 tgl 15 0 empty empty empty 17 7 0 10 #fcfcfc #000000 #000000 0 1;
#X obj 627 352 spigot;
#X obj 264 268 tgl 15 0 empty empty empty 17 7 0 10 #fcfcfc #000000 #000000 0 1;
#X obj 671 352 spigot;
#X obj 380 268 tgl 15 0 empty empty empty 17 7 0 10 #fcfcfc #000000 #000000 0 1;
#X obj 716 352 spigot;
#X obj 399 268 tgl 15 0 empty empty empty 17 7 0 10 #fcfcfc #000000 #000000 0 1;
#X obj 761 352 spigot;
#X obj 362 268 tgl 15 0 empty empty empty 17 7 0 10 #fcfcfc #000000 #000000 0 1;
#X obj 49 22 inlet;
#X obj 52 131 inlet;
#X obj 141 54 inlet;
#X text 75 107 on;
#X text 259 64 tempo;
#X text 380 106 lenght;
#X obj 109 249 tgl 15 0 empty empty empty 17 7 0 10 #fcfcfc #000000 #000000 0 1;
#X obj 96 368 spigot;
#X obj 964 537 outlet;
#X obj 127 249 tgl 15 0 empty empty empty 17 7 0 10 #fcfcfc #000000 #000000 0 1;
#X obj 142 370 spigot;
#X obj 144 249 tgl 15 0 empty empty empty 17 7 0 10 #fcfcfc #000000 #000000 0 1;
#X obj 186 371 spigot;
#X obj 162 249 tgl 15 0 empty empty empty 17 7 0 10 #fcfcfc #000000 #000000 0 1;
#X obj 232 372 spigot;
#X obj 185 249 tgl 15 0 empty empty empty 17 7 0 10 #fcfcfc #000000 #000000 0 1;
#X obj 276 372 spigot;
#X obj 204 249 tgl 15 0 empty empty empty 17 7 0 10 #fcfcfc #000000 #000000 0 1;
#X obj 321 372 spigot;
#X obj 222 249 tgl 15 0 empty empty empty 17 7 0 10 #fcfcfc #000000 #000000 0 1;
#X obj 363 372 spigot;
#X obj 240 249 tgl 15 0 empty empty empty 17 7 0 10 #fcfcfc #000000 #000000 0 1;
#X obj 407 372 spigot;
#X obj 491 219 sel 1 2 3 4 5 6 7 8 9 10 11 12 13 14 15 16;
#X obj 452 372 spigot;
#X obj 282 249 tgl 15 0 empty empty empty 17 7 0 10 #fcfcfc #000000 #000000 0 1;
#X obj 496 372 spigot;
#X obj 301 249 tgl 15 0 empty empty empty 17 7 0 10 #fcfcfc #000000 #000000 0 1;
#X obj 541 372 spigot;
#X obj 319 249 tgl 15 0 empty empty empty 17 7 0 10 #fcfcfc #000000 #000000 0 1;
#X obj 583 372 spigot;
#X obj 343 249 tgl 15 0 empty empty empty 17 7 0 10 #fcfcfc #000000 #000000 0 1;
#X obj 627 372 spigot;
#X obj 264 249 tgl 15 0 empty empty empty 17 7 0 10 #fcfcfc #000000 #000000 0 1;
#X obj 671 372 spigot;
#X obj 380 249 tgl 15 0 empty empty empty 17 7 0 10 #fcfcfc #000000 #000000 0 1;
#X obj 716 372 spigot;
#X obj 399 249 tgl 15 0 empty empty empty 17 7 0 10 #fcfcfc #000000 #000000 0 1;
#X obj 761 372 spigot;
#X obj 362 249 tgl 15 0 empty empty empty 17 7 0 10 #fcfcfc #000000 #000000 0 1;
#X obj 109 230 tgl 15 0 empty empty empty 17 7 0 10 #fcfcfc #000000 #000000 0 1;
#X obj 96 436 spigot;
#X obj 892 588 outlet;
#X obj 127 230 tgl 15 0 empty empty empty 17 7 0 10 #fcfcfc #000000 #000000 0 1;
#X obj 142 438 spigot;
#X obj 144 230 tgl 15 0 empty empty empty 17 7 0 10 #fcfcfc #000000 #000000 0 1;
#X obj 186 439 spigot;
#X obj 162 230 tgl 15 0 empty empty empty 17 7 0 10 #fcfcfc #000000 #000000 0 1;
#X obj 232 440 spigot;
#X obj 185 230 tgl 15 0 empty empty empty 17 7 0 10 #fcfcfc #000000 #000000 0 1;
#X obj 276 440 spigot;
#X obj 204 230 tgl 15 0 empty empty empty 17 7 0 10 #fcfcfc #000000 #000000 0 1;
#X obj 321 440 spigot;
#X obj 222 230 tgl 15 0 empty empty empty 17 7 0 10 #fcfcfc #000000 #000000 0 1;
#X obj 367 443 spigot;
#X obj 240 230 tgl 15 0 empty empty empty 17 7 0 10 #fcfcfc #000000 #000000 0 1;
#X obj 419 442 spigot;
#X obj 491 244 sel 1 2 3 4 5 6 7 8 9 10 11 12 13 14 15 16;
#X obj 465 440 spigot;
#X obj 282 230 tgl 15 0 empty empty empty 17 7 0 10 #fcfcfc #000000 #000000 0 1;
#X obj 509 440 spigot;
#X obj 301 230 tgl 15 0 empty empty empty 17 7 0 10 #fcfcfc #000000 #000000 0 1;
#X obj 554 440 spigot;
#X obj 319 230 tgl 15 0 empty empty empty 17 7 0 10 #fcfcfc #000000 #000000 0 1;
#X obj 596 440 spigot;
#X obj 343 230 tgl 15 0 empty empty empty 17 7 0 10 #fcfcfc #000000 #000000 0 1;
#X obj 640 440 spigot;
#X obj 264 230 tgl 15 0 empty empty empty 17 7 0 10 #fcfcfc #000000 #000000 0 1;
#X obj 684 440 spigot;
#X obj 380 230 tgl 15 0 empty empty empty 17 7 0 10 #fcfcfc #000000 #000000 0 1;
#X obj 729 440 spigot;
#X obj 399 230 tgl 15 0 empty empty empty 17 7 0 10 #fcfcfc #000000 #000000 0 1;
#X obj 774 440 spigot;
#X obj 362 230 tgl 15 0 empty empty empty 17 7 0 10 #fcfcfc #000000 #000000 0 1;
#X obj 109 287 tgl 15 0 empty empty empty 17 7 0 10 #fcfcfc #000000 #000000 0 1;
#X obj 96 457 spigot;
#X obj 1075 584 outlet;
#X obj 127 287 tgl 15 0 empty empty empty 17 7 0 10 #fcfcfc #000000 #000000 0 1;
#X obj 142 459 spigot;
#X obj 144 287 tgl 15 0 empty empty empty 17 7 0 10 #fcfcfc #000000 #000000 0 1;
#X obj 186 460 spigot;
#X obj 162 287 tgl 15 0 empty empty empty 17 7 0 10 #fcfcfc #000000 #000000 0 1;
#X obj 232 461 spigot;
#X obj 185 287 tgl 15 0 empty empty empty 17 7 0 10 #fcfcfc #000000 #000000 0 1;
#X obj 276 461 spigot;
#X obj 204 287 tgl 15 0 empty empty empty 17 7 0 10 #fcfcfc #000000 #000000 0 1;
#X obj 321 461 spigot;
#X obj 222 287 tgl 15 0 empty empty empty 17 7 0 10 #fcfcfc #000000 #000000 0 1;
#X obj 363 461 spigot;
#X obj 240 287 tgl 15 0 empty empty empty 17 7 0 10 #fcfcfc #000000 #000000 0 1;
#X obj 407 461 spigot;
#X obj 491 267 sel 1 2 3 4 5 6 7 8 9 10 11 12 13 14 15 16;
#X obj 452 461 spigot;
#X obj 282 287 tgl 15 0 empty empty empty 17 7 0 10 #fcfcfc #000000 #000000 0 1;
#X obj 496 461 spigot;
#X obj 301 287 tgl 15 0 empty empty empty 17 7 0 10 #fcfcfc #000000 #000000 0 1;
#X obj 541 461 spigot;
#X obj 319 287 tgl 15 0 empty empty empty 17 7 0 10 #fcfcfc #000000 #000000 0 1;
#X obj 583 461 spigot;
#X obj 343 287 tgl 15 0 empty empty empty 17 7 0 10 #fcfcfc #000000 #000000 0 1;
#X obj 627 461 spigot;
#X obj 264 287 tgl 15 0 empty empty empty 17 7 0 10 #fcfcfc #000000 #000000 0 1;
#X obj 671 461 spigot;
#X obj 380 287 tgl 15 0 empty empty empty 17 7 0 10 #fcfcfc #000000 #000000 0 1;
#X obj 716 461 spigot;
#X obj 399 287 tgl 15 0 empty empty empty 17 7 0 10 #fcfcfc #000000 #000000 0 1;
#X obj 761 461 spigot;
#X obj 362 287 tgl 15 0 empty empty empty 17 7 0 10 #fcfcfc #000000 #000000 0 1;
#X obj 108 147 tgl 15 0 empty empty empty 17 7 0 10 #fcfcfc #000000 #000000 0 1;
#X obj 30 616 spigot;
#X obj 763 632 outlet;
#X obj 126 147 tgl 15 0 empty empty empty 17 7 0 10 #fcfcfc #000000 #000000 0 1;
#X obj 76 618 spigot;
#X obj 143 147 tgl 15 0 empty empty empty 17 7 0 10 #fcfcfc #000000 #000000 0 1;
#X obj 120 619 spigot;
#X obj 161 147 tgl 15 0 empty empty empty 17 7 0 10 #fcfcfc #000000 #000000 0 1;
#X obj 166 620 spigot;
#X obj 184 147 tgl 15 0 empty empty empty 17 7 0 10 #fcfcfc #000000 #000000 0 1;
#X obj 210 620 spigot;
#X obj 203 147 tgl 15 0 empty empty empty 17 7 0 10 #fcfcfc #000000 #000000 0 1;
#X obj 255 620 spigot;
#X obj 221 147 tgl 15 0 empty empty empty 17 7 0 10 #fcfcfc #000000 #000000 0 1;
#X obj 297 620 spigot;
#X obj 240 147 tgl 15 0 empty empty empty 17 7 0 10 #fcfcfc #000000 #000000 0 1;
#X obj 341 620 spigot;
#X obj 485 496 sel 1 2 3 4 5 6 7 8 9 10 11 12 13 14 15 16;
#X obj 386 620 spigot;
#X obj 281 147 tgl 15 0 empty empty empty 17 7 0 10 #fcfcfc #000000 #000000 0 1;
#X obj 430 620 spigot;
#X obj 300 147 tgl 15 0 empty empty empty 17 7 0 10 #fcfcfc #000000 #000000 0 1;
#X obj 475 620 spigot;
#X obj 318 147 tgl 15 0 empty empty empty 17 7 0 10 #fcfcfc #000000 #000000 0 1;
#X obj 517 620 spigot;
#X obj 342 147 tgl 15 0 empty empty empty 17 7 0 10 #fcfcfc #000000 #000000 0 1;
#X obj 561 620 spigot;
#X obj 263 147 tgl 15 0 empty empty empty 17 7 0 10 #fcfcfc #000000 #000000 0 1;
#X obj 605 620 spigot;
#X obj 379 147 tgl 15 0 empty empty empty 17 7 0 10 #fcfcfc #000000 #000000 0 1;
#X obj 650 620 spigot;
#X obj 398 147 tgl 15 0 empty empty empty 17 7 0 10 #fcfcfc #000000 #000000 0 1;
#X obj 695 620 spigot;
#X obj 361 147 tgl 15 0 empty empty empty 17 7 0 10 #fcfcfc #000000 #000000 0 1;
#X obj 108 165 tgl 15 0 empty empty empty 17 7 0 10 #fcfcfc #000000 #000000 0 1;
#X obj 30 636 spigot;
#X obj 789 657 outlet;
#X obj 126 165 tgl 15 0 empty empty empty 17 7 0 10 #fcfcfc #000000 #000000 0 1;
#X obj 76 638 spigot;
#X obj 143 165 tgl 15 0 empty empty empty 17 7 0 10 #fcfcfc #000000 #000000 0 1;
#X obj 120 639 spigot;
#X obj 161 165 tgl 15 0 empty empty empty 17 7 0 10 #fcfcfc #000000 #000000 0 1;
#X obj 166 640 spigot;
#X obj 184 165 tgl 15 0 empty empty empty 17 7 0 10 #fcfcfc #000000 #000000 0 1;
#X obj 210 640 spigot;
#X obj 203 165 tgl 15 0 empty empty empty 17 7 0 10 #fcfcfc #000000 #000000 0 1;
#X obj 255 640 spigot;
#X obj 221 165 tgl 15 0 empty empty empty 17 7 0 10 #fcfcfc #000000 #000000 0 1;
#X obj 297 640 spigot;
#X obj 239 165 tgl 15 0 empty empty empty 17 7 0 10 #fcfcfc #000000 #000000 0 1;
#X obj 341 640 spigot;
#X obj 488 522 sel 1 2 3 4 5 6 7 8 9 10 11 12 13 14 15 16;
#X obj 386 640 spigot;
#X obj 281 165 tgl 15 0 empty empty empty 17 7 0 10 #fcfcfc #000000 #000000 0 1;
#X obj 430 640 spigot;
#X obj 300 165 tgl 15 0 empty empty empty 17 7 0 10 #fcfcfc #000000 #000000 0 1;
#X obj 475 640 spigot;
#X obj 318 165 tgl 15 0 empty empty empty 17 7 0 10 #fcfcfc #000000 #000000 0 1;
#X obj 517 640 spigot;
#X obj 342 165 tgl 15 0 empty empty empty 17 7 0 10 #fcfcfc #000000 #000000 0 1;
#X obj 561 640 spigot;
#X obj 263 165 tgl 15 0 empty empty empty 17 7 0 10 #fcfcfc #000000 #000000 0 1;
#X obj 605 640 spigot;
#X obj 379 165 tgl 15 0 empty empty empty 17 7 0 10 #fcfcfc #000000 #000000 0 1;
#X obj 650 640 spigot;
#X obj 398 165 tgl 15 0 empty empty empty 17 7 0 10 #fcfcfc #000000 #000000 0 1;
#X obj 695 640 spigot;
#X obj 361 165 tgl 15 0 empty empty empty 17 7 0 10 #fcfcfc #000000 #000000 0 1;
#X obj 108 201 tgl 15 0 empty empty empty 17 7 0 10 #fcfcfc #000000 #000000 0 1;
#X obj 40 775 spigot;
#X obj 839 693 outlet;
#X obj 126 201 tgl 15 0 empty empty empty 17 7 0 10 #fcfcfc #000000 #000000 0 1;
#X obj 86 777 spigot;
#X obj 143 201 tgl 15 0 empty empty empty 17 7 0 10 #fcfcfc #000000 #000000 0 1;
#X obj 130 778 spigot;
#X obj 161 201 tgl 15 0 empty empty empty 17 7 0 10 #fcfcfc #000000 #000000 0 1;
#X obj 176 779 spigot;
#X obj 184 201 tgl 15 0 empty empty empty 17 7 0 10 #fcfcfc #000000 #000000 0 1;
#X obj 220 779 spigot;
#X obj 203 201 tgl 15 0 empty empty empty 17 7 0 10 #fcfcfc #000000 #000000 0 1;
#X obj 265 779 spigot;
#X obj 221 201 tgl 15 0 empty empty empty 17 7 0 10 #fcfcfc #000000 #000000 0 1;
#X obj 307 779 spigot;
#X obj 239 201 tgl 15 0 empty empty empty 17 7 0 10 #fcfcfc #000000 #000000 0 1;
#X obj 351 779 spigot;
#X obj 487 548 sel 1 2 3 4 5 6 7 8 9 10 11 12 13 14 15 16;
#X obj 396 779 spigot;
#X obj 281 201 tgl 15 0 empty empty empty 17 7 0 10 #fcfcfc #000000 #000000 0 1;
#X obj 440 779 spigot;
#X obj 300 201 tgl 15 0 empty empty empty 17 7 0 10 #fcfcfc #000000 #000000 0 1;
#X obj 485 779 spigot;
#X obj 318 201 tgl 15 0 empty empty empty 17 7 0 10 #fcfcfc #000000 #000000 0 1;
#X obj 527 779 spigot;
#X obj 342 201 tgl 15 0 empty empty empty 17 7 0 10 #fcfcfc #000000 #000000 0 1;
#X obj 571 779 spigot;
#X obj 263 201 tgl 15 0 empty empty empty 17 7 0 10 #fcfcfc #000000 #000000 0 1;
#X obj 615 779 spigot;
#X obj 379 201 tgl 15 0 empty empty empty 17 7 0 10 #fcfcfc #000000 #000000 0 1;
#X obj 660 779 spigot;
#X obj 398 201 tgl 15 0 empty empty empty 17 7 0 10 #fcfcfc #000000 #000000 0 1;
#X obj 705 779 spigot;
#X obj 361 201 tgl 15 0 empty empty empty 17 7 0 10 #fcfcfc #000000 #000000 0 1;
#X obj 108 183 tgl 15 0 empty empty empty 17 7 0 10 #fcfcfc #000000 #000000 0 1;
#X obj 40 795 spigot;
#X obj 818 716 outlet;
#X obj 126 183 tgl 15 0 empty empty empty 17 7 0 10 #fcfcfc #000000 #000000 0 1;
#X obj 86 797 spigot;
#X obj 143 183 tgl 15 0 empty empty empty 17 7 0 10 #fcfcfc #000000 #000000 0 1;
#X obj 130 798 spigot;
#X obj 161 183 tgl 15 0 empty empty empty 17 7 0 10 #fcfcfc #000000 #000000 0 1;
#X obj 176 799 spigot;
#X obj 184 183 tgl 15 0 empty empty empty 17 7 0 10 #fcfcfc #000000 #000000 0 1;
#X obj 220 799 spigot;
#X obj 203 183 tgl 15 0 empty empty empty 17 7 0 10 #fcfcfc #000000 #000000 0 1;
#X obj 265 799 spigot;
#X obj 221 183 tgl 15 0 empty empty empty 17 7 0 10 #fcfcfc #000000 #000000 0 1;
#X obj 307 799 spigot;
#X obj 239 183 tgl 15 0 empty empty empty 17 7 0 10 #fcfcfc #000000 #000000 0 1;
#X obj 351 799 spigot;
#X obj 487 575 sel 1 2 3 4 5 6 7 8 9 10 11 12 13 14 15 16;
#X obj 396 799 spigot;
#X obj 281 183 tgl 15 0 empty empty empty 17 7 0 10 #fcfcfc #000000 #000000 0 1;
#X obj 440 799 spigot;
#X obj 300 183 tgl 15 0 empty empty empty 17 7 0 10 #fcfcfc #000000 #000000 0 1;
#X obj 485 799 spigot;
#X obj 318 183 tgl 15 0 empty empty empty 17 7 0 10 #fcfcfc #000000 #000000 0 1;
#X obj 527 799 spigot;
#X obj 342 183 tgl 15 0 empty empty empty 17 7 0 10 #fcfcfc #000000 #000000 0 1;
#X obj 571 799 spigot;
#X obj 263 183 tgl 15 0 empty empty empty 17 7 0 10 #fcfcfc #000000 #000000 0 1;
#X obj 615 799 spigot;
#X obj 379 183 tgl 15 0 empty empty empty 17 7 0 10 #fcfcfc #000000 #000000 0 1;
#X obj 660 799 spigot;
#X obj 398 183 tgl 15 0 empty empty empty 17 7 0 10 #fcfcfc #000000 #000000 0 1;
#X obj 705 799 spigot;
#X obj 361 183 tgl 15 0 empty empty empty 17 7 0 10 #fcfcfc #000000 #000000 0 1;
#X obj 9 470 mod 16;
#X obj 199 53 inlet;
#X obj 76 92 tgl 15 0 empty empty empty 17 7 0 10 #fc8000 #000000 #000000 0 1;
#X text 422 145 1;
#X floatatom 255 47 5 0 0 0 - - - 0;
#X msg 317 47 16;
#X msg 350 47 8;
#X msg 418 47 0;
#X msg 384 47 4;
#X msg 315 69 16;
#X msg 348 69 8;
#X msg 416 69 0;
#X msg 382 69 4;
#X obj 16 411 s mod1;
#X obj 297 124 bng 15 250 50 0 empty empty 16 2 7 0 10 #dcdcdc #000000 #000000;
#X obj 317 124 bng 15 250 50 0 empty empty 8 4 7 0 10 #dcdcdc #000000 #000000;
#X obj 358 124 bng 15 250 50 0 empty empty 0 4 7 0 10 #dcdcdc #000000 #000000;
#X obj 338 124 bng 15 250 50 0 empty empty 4 3 7 0 10 #dcdcdc #000000 #000000;
#X obj 297 105 bng 15 250 50 0 empty empty 16 2 7 0 10 #dcdcdc #000000 #000000;
#X obj 317 105 bng 15 250 50 0 empty empty 8 4 7 0 10 #dcdcdc #000000 #000000;
#X obj 358 105 bng 15 250 50 0 empty empty 0 4 7 0 10 #dcdcdc #000000 #000000;
#X obj 338 105 bng 15 250 50 0 empty empty 4 3 7 0 10 #dcdcdc #000000 #000000;
#X obj 540 65 inlet;
#X obj 111 308 hsl 300 10 0 15 0 0 empty empty empty -2 -8 0 10 #fcfcfc #000000 #000000 0 1;
#X obj -3 236 counter 1 16;
#X obj 111 219 hsl 300 10 0 15 0 0 empty empty empty -2 -8 0 10 #fcfcfc #000000 #000000 0 1;
#X obj 40 314 + 1;
#X obj -21 502 + 1;
#X obj -7 265 r met16;
#X obj -14 63 r clickmal;
#X obj 72 55 sel 0;
#X obj 21 192 spigot;
#X obj 21 100 t b;
#X connect 0 0 1 1;
#X connect 1 0 2 0;
#X connect 3 0 4 1;
#X connect 4 0 2 0;
#X connect 5 0 6 1;
#X connect 6 0 2 0;
#X connect 7 0 8 1;
#X connect 8 0 2 0;
#X connect 9 0 10 1;
#X connect 10 0 2 0;
#X connect 11 0 12 1;
#X connect 12 0 2 0;
#X connect 13 0 14 1;
#X connect 14 0 2 0;
#X connect 15 0 16 1;
#X connect 16 0 2 0;
#X connect 17 0 1 0;
#X connect 17 1 4 0;
#X connect 17 2 6 0;
#X connect 17 3 8 0;
#X connect 17 4 10 0;
#X connect 17 5 12 0;
#X connect 17 6 14 0;
#X connect 17 7 16 0;
#X connect 17 8 21 0;
#X connect 17 9 23 0;
#X connect 17 10 25 0;
#X connect 17 11 27 0;
#X connect 17 12 29 0;
#X connect 17 13 31 0;
#X connect 17 14 33 0;
#X connect 17 15 35 0;
#X connect 19 0 294 0;
#X connect 20 0 304 0;
#X connect 20 0 307 0;
#X connect 21 0 2 0;
#X connect 22 0 23 1;
#X connect 23 0 2 0;
#X connect 24 0 25 1;
#X connect 25 0 2 0;
#X connect 26 0 27 1;
#X connect 27 0 2 0;
#X connect 28 0 29 1;
#X connect 29 0 2 0;
#X connect 30 0 21 1;
#X connect 31 0 2 0;
#X connect 32 0 33 1;
#X connect 33 0 2 0;
#X connect 34 0 35 1;
#X connect 35 0 2 0;
#X connect 36 0 31 1;
#X connect 37 0 311 0;
#X connect 37 0 313 0;
#X connect 38 0 18 1;
#X connect 39 0 20 1;
#X connect 43 0 44 1;
#X connect 44 0 45 0;
#X connect 46 0 47 1;
#X connect 47 0 45 0;
#X connect 48 0 49 1;
#X connect 49 0 45 0;
#X connect 50 0 51 1;
#X connect 51 0 45 0;
#X connect 52 0 53 1;
#X connect 53 0 45 0;
#X connect 54 0 55 1;
#X connect 55 0 45 0;
#X connect 56 0 57 1;
#X connect 57 0 45 0;
#X connect 58 0 59 1;
#X connect 59 0 45 0;
#X connect 60 0 44 0;
#X connect 60 1 47 0;
#X connect 60 2 49 0;
#X connect 60 3 51 0;
#X connect 60 4 53 0;
#X connect 60 5 55 0;
#X connect 60 6 57 0;
#X connect 60 7 59 0;
#X connect 60 8 61 0;
#X connect 60 9 63 0;
#X connect 60 10 65 0;
#X connect 60 11 67 0;
#X connect 60 12 69 0;
#X connect 60 13 71 0;
#X connect 60 14 73 0;
#X connect 60 15 75 0;
#X connect 61 0 45 0;
#X connect 62 0 63 1;
#X connect 63 0 45 0;
#X connect 64 0 65 1;
#X connect 65 0 45 0;
#X connect 66 0 67 1;
#X connect 67 0 45 0;
#X connect 68 0 69 1;
#X connect 69 0 45 0;
#X connect 70 0 61 1;
#X connect 71 0 45 0;
#X connect 72 0 73 1;
#X connect 73 0 45 0;
#X connect 74 0 75 1;
#X connect 75 0 45 0;
#X connect 76 0 71 1;
#X connect 77 0 78 1;
#X connect 78 0 79 0;
#X connect 80 0 81 1;
#X connect 81 0 79 0;
#X connect 82 0 83 1;
#X connect 83 0 79 0;
#X connect 84 0 85 1;
#X connect 85 0 79 0;
#X connect 86 0 87 1;
#X connect 87 0 79 0;
#X connect 88 0 89 1;
#X connect 89 0 79 0;
#X connect 90 0 91 1;
#X connect 91 0 79 0;
#X connect 92 0 93 1;
#X connect 93 0 79 0;
#X connect 94 0 78 0;
#X connect 94 1 81 0;
#X connect 94 2 83 0;
#X connect 94 3 85 0;
#X connect 94 4 87 0;
#X connect 94 5 89 0;
#X connect 94 6 91 0;
#X connect 94 7 93 0;
#X connect 94 8 95 0;
#X connect 94 9 97 0;
#X connect 94 10 99 0;
#X connect 94 11 101 0;
#X connect 94 12 103 0;
#X connect 94 13 105 0;
#X connect 94 14 107 0;
#X connect 94 15 109 0;
#X connect 95 0 79 0;
#X connect 96 0 97 1;
#X connect 97 0 79 0;
#X connect 98 0 99 1;
#X connect 99 0 79 0;
#X connect 100 0 101 1;
#X connect 101 0 79 0;
#X connect 102 0 103 1;
#X connect 103 0 79 0;
#X connect 104 0 95 1;
#X connect 105 0 79 0;
#X connect 106 0 107 1;
#X connect 107 0 79 0;
#X connect 108 0 109 1;
#X connect 109 0 79 0;
#X connect 110 0 105 1;
#X connect 111 0 112 1;
#X connect 112 0 113 0;
#X connect 114 0 115 1;
#X connect 115 0 113 0;
#X connect 116 0 117 1;
#X connect 117 0 113 0;
#X connect 118 0 119 1;
#X connect 119 0 113 0;
#X connect 120 0 121 1;
#X connect 121 0 113 0;
#X connect 122 0 123 1;
#X connect 123 0 113 0;
#X connect 124 0 125 1;
#X connect 125 0 113 0;
#X connect 126 0 127 1;
#X connect 127 0 113 0;
#X connect 128 0 112 0;
#X connect 128 1 115 0;
#X connect 128 2 117 0;
#X connect 128 3 119 0;
#X connect 128 4 121 0;
#X connect 128 5 123 0;
#X connect 128 6 125 0;
#X connect 128 7 127 0;
#X connect 128 8 129 0;
#X connect 128 9 131 0;
#X connect 128 10 133 0;
#X connect 128 11 135 0;
#X connect 128 12 137 0;
#X connect 128 13 139 0;
#X connect 128 14 141 0;
#X connect 128 15 143 0;
#X connect 129 0 113 0;
#X connect 130 0 131 1;
#X connect 131 0 113 0;
#X connect 132 0 133 1;
#X connect 133 0 113 0;
#X connect 134 0 135 1;
#X connect 135 0 113 0;
#X connect 136 0 137 1;
#X connect 137 0 113 0;
#X connect 138 0 129 1;
#X connect 139 0 113 0;
#X connect 140 0 141 1;
#X connect 141 0 113 0;
#X connect 142 0 143 1;
#X connect 143 0 113 0;
#X connect 144 0 139 1;
#X connect 145 0 146 1;
#X connect 146 0 147 0;
#X connect 148 0 149 1;
#X connect 149 0 147 0;
#X connect 150 0 151 1;
#X connect 151 0 147 0;
#X connect 152 0 153 1;
#X connect 153 0 147 0;
#X connect 154 0 155 1;
#X connect 155 0 147 0;
#X connect 156 0 157 1;
#X connect 157 0 147 0;
#X connect 158 0 159 1;
#X connect 159 0 147 0;
#X connect 160 0 161 1;
#X connect 161 0 147 0;
#X connect 162 0 146 0;
#X connect 162 1 149 0;
#X connect 162 2 151 0;
#X connect 162 3 153 0;
#X connect 162 4 155 0;
#X connect 162 5 157 0;
#X connect 162 6 159 0;
#X connect 162 7 161 0;
#X connect 162 8 163 0;
#X connect 162 9 165 0;
#X connect 162 10 167 0;
#X connect 162 11 169 0;
#X connect 162 12 171 0;
#X connect 162 13 173 0;
#X connect 162 14 175 0;
#X connect 162 15 177 0;
#X connect 163 0 147 0;
#X connect 164 0 165 1;
#X connect 165 0 147 0;
#X connect 166 0 167 1;
#X connect 167 0 147 0;
#X connect 168 0 169 1;
#X connect 169 0 147 0;
#X connect 170 0 171 1;
#X connect 171 0 147 0;
#X connect 172 0 163 1;
#X connect 173 0 147 0;
#X connect 174 0 175 1;
#X connect 175 0 147 0;
#X connect 176 0 177 1;
#X connect 177 0 147 0;
#X connect 178 0 173 1;
#X connect 179 0 180 1;
#X connect 180 0 181 0;
#X connect 182 0 183 1;
#X connect 183 0 181 0;
#X connect 184 0 185 1;
#X connect 185 0 181 0;
#X connect 186 0 187 1;
#X connect 187 0 181 0;
#X connect 188 0 189 1;
#X connect 189 0 181 0;
#X connect 190 0 191 1;
#X connect 191 0 181 0;
#X connect 192 0 193 1;
#X connect 193 0 181 0;
#X connect 194 0 195 1;
#X connect 195 0 181 0;
#X connect 196 0 180 0;
#X connect 196 1 183 0;
#X connect 196 2 185 0;
#X connect 196 3 187 0;
#X connect 196 4 189 0;
#X connect 196 5 191 0;
#X connect 196 6 193 0;
#X connect 196 7 195 0;
#X connect 196 8 197 0;
#X connect 196 9 199 0;
#X connect 196 10 201 0;
#X connect 196 11 203 0;
#X connect 196 12 205 0;
#X connect 196 13 207 0;
#X connect 196 14 209 0;
#X connect 196 15 211 0;
#X connect 197 0 181 0;
#X connect 198 0 199 1;
#X connect 199 0 181 0;
#X connect 200 0 201 1;
#X connect 201 0 181 0;
#X connect 202 0 203 1;
#X connect 203 0 181 0;
#X connect 204 0 205 1;
#X connect 205 0 181 0;
#X connect 206 0 197 1;
#X connect 207 0 181 0;
#X connect 208 0 209 1;
#X connect 209 0 181 0;
#X connect 210 0 211 1;
#X connect 211 0 181 0;
#X connect 212 0 207 1;
#X connect 213 0 214 1;
#X connect 214 0 215 0;
#X connect 216 0 217 1;
#X connect 217 0 215 0;
#X connect 218 0 219 1;
#X connect 219 0 215 0;
#X connect 220 0 221 1;
#X connect 221 0 215 0;
#X connect 222 0 223 1;
#X connect 223 0 215 0;
#X connect 224 0 225 1;
#X connect 225 0 215 0;
#X connect 226 0 227 1;
#X connect 227 0 215 0;
#X connect 228 0 229 1;
#X connect 229 0 215 0;
#X connect 230 0 214 0;
#X connect 230 1 217 0;
#X connect 230 2 219 0;
#X connect 230 3 221 0;
#X connect 230 4 223 0;
#X connect 230 5 225 0;
#X connect 230 6 227 0;
#X connect 230 7 229 0;
#X connect 230 8 231 0;
#X connect 230 9 233 0;
#X connect 230 10 235 0;
#X connect 230 11 237 0;
#X connect 230 12 239 0;
#X connect 230 13 241 0;
#X connect 230 14 243 0;
#X connect 230 15 245 0;
#X connect 231 0 215 0;
#X connect 232 0 233 1;
#X connect 233 0 215 0;
#X connect 234 0 235 1;
#X connect 235 0 215 0;
#X connect 236 0 237 1;
#X connect 237 0 215 0;
#X connect 238 0 239 1;
#X connect 239 0 215 0;
#X connect 240 0 231 1;
#X connect 241 0 215 0;
#X connect 242 0 243 1;
#X connect 243 0 215 0;
#X connect 244 0 245 1;
#X connect 245 0 215 0;
#X connect 246 0 241 1;
#X connect 247 0 248 1;
#X connect 248 0 249 0;
#X connect 250 0 251 1;
#X connect 251 0 249 0;
#X connect 252 0 253 1;
#X connect 253 0 249 0;
#X connect 254 0 255 1;
#X connect 255 0 249 0;
#X connect 256 0 257 1;
#X connect 257 0 249 0;
#X connect 258 0 259 1;
#X connect 259 0 249 0;
#X connect 260 0 261 1;
#X connect 261 0 249 0;
#X connect 262 0 263 1;
#X connect 263 0 249 0;
#X connect 264 0 248 0;
#X connect 264 1 251 0;
#X connect 264 2 253 0;
#X connect 264 3 255 0;
#X connect 264 4 257 0;
#X connect 264 5 259 0;
#X connect 264 6 261 0;
#X connect 264 7 263 0;
#X connect 264 8 265 0;
#X connect 264 9 267 0;
#X connect 264 10 269 0;
#X connect 264 11 271 0;
#X connect 264 12 273 0;
#X connect 264 13 275 0;
#X connect 264 14 277 0;
#X connect 264 15 279 0;
#X connect 265 0 249 0;
#X connect 266 0 267 1;
#X connect 267 0 249 0;
#X connect 268 0 269 1;
#X connect 269 0 249 0;
#X connect 270 0 271 1;
#X connect 271 0 249 0;
#X connect 272 0 273 1;
#X connect 273 0 249 0;
#X connect 274 0 265 1;
#X connect 275 0 249 0;
#X connect 276 0 277 1;
#X connect 277 0 249 0;
#X connect 278 0 279 1;
#X connect 279 0 249 0;
#X connect 280 0 275 1;
#X connect 281 0 306 0;
#X connect 281 0 308 0;
#X connect 282 0 281 1;
#X connect 283 0 18 0;
#X connect 285 0 18 1;
#X connect 286 0 20 1;
#X connect 287 0 20 1;
#X connect 288 0 20 1;
#X connect 289 0 20 1;
#X connect 290 0 281 1;
#X connect 291 0 281 1;
#X connect 292 0 281 1;
#X connect 293 0 281 1;
#X connect 295 0 286 0;
#X connect 296 0 287 0;
#X connect 297 0 288 0;
#X connect 298 0 289 0;
#X connect 299 0 290 0;
#X connect 300 0 291 0;
#X connect 301 0 292 0;
#X connect 302 0 293 0;
#X connect 303 0 19 0;
#X connect 303 0 281 0;
#X connect 303 0 20 0;
#X connect 305 0 20 0;
#X connect 305 0 281 0;
#X connect 307 0 17 0;
#X connect 307 0 60 0;
#X connect 307 0 94 0;
#X connect 307 0 128 0;
#X connect 307 0 19 0;
#X connect 308 0 162 0;
#X connect 308 0 196 0;
#X connect 308 0 230 0;
#X connect 308 0 264 0;
#X connect 309 0 20 0;
#X connect 309 0 281 0;
#X connect 310 0 20 0;
#X connect 310 0 281 0;
#X connect 313 0 305 0;
#X coords 0 -1 1 1 320 220 2 100 100;
#X restore 1094 13 pd seqnz;
#X text 30 93 sequencer;
#X obj 732 12 key;
#X obj 130 416 cos~;
#X obj 1087 240 bng 19 250 50 0 empty empty empty 0 -10 0 12 #fcfcfc #000000 #000000;
#X obj 830 14 notein;
#X obj 479 183 env~;
#X msg 987 15 \; pd dsp 1, f 9;
#X obj 829 63 ctlin 1;
#X msg 983 50 \; pd dsp 0, f 9;
#X obj 39 500 dac~, f 16;
#X obj 829 35 nbx 3 17 -1e+37 1e+37 0 0 empty empty empty 0 -10 0 12 #000000 #00ff04 #00ff04 0 256;
#X obj 875 35 nbx 3 17 -1e+37 1e+37 0 0 empty empty empty 0 -10 0 12 #000000 #00ff04 #00ff04 0 256;
#X obj 920 35 nbx 3 17 -1e+37 1e+37 0 0 empty empty empty 0 -10 0 12 #000000 #00ff04 #00ff04 0 256;
#X obj 265 170 s3oscil;
#X obj 265 144 osc~ 1222;
#X obj 360 169 s3oscil;
#X obj 264 264 s3oscil;
#X obj 264 240 clip~ -0.3 1;
#X obj 765 413 bob~, f 12;
#X obj 983 85 r step;
#X obj 765 360 sigmund~;
#X obj 765 387 bonk~;
#X obj 37 451 rev3~, f 22;
#X obj 357 138 noise~;
#X obj 238 97 adc~, f 10;
#X obj 477 206 snapshot~;
#X obj 478 158 metro 11;
#X obj 477 135 tgl 19 0 empty empty empty 0 -10 0 12 #fcfcfc #000000 #000000 0 1;
#X obj 529 506 output~;
#N canvas 259 199 963 453 seq 0;
#X obj -42 123 tabread arr\$0;
#X obj -44 99 r step;
#X floatatom 52 170 5 0 0 0 - - - 0;
#X obj 52 191 tabwrite arr\$0;
#N canvas 440 465 450 278 (subpatch) 0;
#X array arr\$0 16 float 3;
#A 0 0.0372671 0.0496894 0.0559006 0.0434783 0.0434783 0 0.0931677 0.0993789 0.0869565 0.0372671 0.0310559 0.068323 0.0124224 0.0248447 0.0869565 0.0931677;
#X coords 0 1 16 -1 60 40 1 0 0;
#X restore 122 117 graph;
#X floatatom -42 166 5 0 0 0 - - - 0;
#X obj -42 189 outlet;
#X obj 53 147 / 127;
#X obj -43 145 * 127;
#X obj 54 99 inlet;
#X obj 280 114 f \$0;
#X obj 168 103 bng 11 250 50 0 empty empty empty 0 -10 0 8 #000000 #000000 #000000;
#X msg 279 135 \; arr\$1 const 0;
#X connect 0 0 8 0;
#X connect 1 0 0 0;
#X connect 1 0 3 1;
#X connect 2 0 3 0;
#X connect 5 0 6 0;
#X connect 7 0 2 0;
#X connect 8 0 5 0;
#X connect 9 0 7 0;
#X connect 10 0 12 0;
#X connect 11 0 10 0;
#X coords 0 -1 1 1 85 60 2 100 100;
#X restore 519 381 pd seq;
#X text 314 6 find your $$$$$ !!!;
#X text 327 24 find your ~~~~~~~~~ !!!;
#X obj 515 358 hsl 162 19 0 127 0 0 empty empty empty -2 -10 0 12 #fcfcfc #000000 #000000 0 1;
#X floatatom 521 447 5 0 0 0 - - - 0;
#X floatatom 612 119 5 0 0 0 - - - 0;
#X obj 611 95 random 127;
#X obj 731 36 nbx 3 17 -1e+37 1e+37 0 0 empty empty empty 0 -10 0 12 #000000 #00ff04 #00ff04 0 256;
#X obj 829 86 nbx 3 17 -1e+37 1e+37 0 0 empty empty empty 0 -10 0 12 #000000 #00ff04 #00ff04 0 256;
#N canvas 408 -740 450 300 put_whatever_here_/////////// 0;
#X restore 38 475 pd put_whatever_here_///////////;
#N canvas 353 129 473 162 ableton_ink 0;
#X floatatom 21 80 5 0 0 1 step - - 0;
#X floatatom 101 100 5 0 0 0 - - - 0;
#X obj 101 78 r #abl_link_num_peers;
#X obj 21 55 abl_link~ 4 0 4 134;
#X obj 22 15 tgl 15 0 empty empty empty 17 7 0 10 #fcfcfc #000000 #000000 0 1;
#X msg 22 32 connect \$1;
#X obj 17 113 s step;
#X msg 312 60 tempo \$1;
#X floatatom 312 41 5 0 0 2 tempo - - 0;
#X obj 130 32 loadbang;
#X msg 100 32 1;
#X connect 0 0 6 0;
#X connect 2 0 1 0;
#X connect 3 0 0 0;
#X connect 4 0 5 0;
#X connect 5 0 3 0;
#X connect 7 0 3 0;
#X connect 8 0 7 0;
#X connect 9 0 10 0;
#X connect 10 0 4 0;
#X restore 738 197 pd ableton_ink /////////;
#N canvas 62 146 834 620 loop_player 0;
#X floatatom 93 550 6 0 0 0 - - - 0;
#X obj 150 516 output~;
#X obj 509 147 declare -stdpath ./;
#X floatatom 284 550 6 0 0 0 - - - 0;
#X msg 138 369 start;
#X msg 152 412 stop;
#X text 348 518 "bang" when file reaches the end., f 16;
#X msg 93 295 open ../sound/bell.aiff 0 200 2 2 b;
#X obj 93 479 readsf~ 2 262144, f 55;
#X obj 30 268 openpanel;
#X msg 38 326 open \$1;
#X obj 30 239 bng 19 250 50 0 empty empty empty 0 -10 0 12 #dfdfdf #000000 #000000;
#X obj 85 130 inlet;
#X obj 93 523 outlet~;
#X obj 284 522 outlet~;
#X obj 260 371 symbol;
#X obj 352 335 t b b;
#X msg 274 409 open \$1;
#X symbolatom 193 242 10 0 0 0 - - - 0;
#X obj 25 393 t b;
#X obj 30 425 delay 12;
#X connect 4 0 8 0;
#X connect 5 0 8 0;
#X connect 7 0 8 0;
#X connect 8 0 1 0;
#X connect 8 0 13 0;
#X connect 8 1 1 1;
#X connect 8 1 14 0;
#X connect 8 2 15 0;
#X connect 8 2 16 0;
#X connect 9 0 10 0;
#X connect 9 0 18 0;
#X connect 9 0 15 1;
#X connect 10 0 8 0;
#X connect 10 0 19 0;
#X connect 11 0 9 0;
#X connect 12 0 11 0;
#X connect 15 0 17 0;
#X connect 16 0 4 0;
#X connect 16 1 15 0;
#X connect 17 0 8 0;
#X connect 19 0 20 0;
#X connect 20 0 4 0;
#X restore 47 254 pd loop_player;
#X obj 46 231 bng 19 250 50 0 empty empty empty 0 -10 0 12 #fcfcfc #000000 #000000;
#X obj 1132 242 bng 19 250 50 0 empty empty empty 0 -10 0 12 #fcfcfc #000000 #000000;
#X obj 357 263 s3oscil;
#X obj 359 241 phasor~ 444;
#X obj 478 232 hsl 80 19 0 100 0 0 empty empty empty -2 -10 0 12 #fcfcfc #000000 #000000 0 1;
#X obj 110 367 bng 19 250 50 0 empty empty empty 0 -10 0 12 #fcfcfc #000000 #000000;
#X floatatom 181 368 5 0 0 0 - - - 0;
#X obj 358 329 s3oscil;
#N canvas 266 54 628 565 envvca 0;
#X obj 139 417 *~;
#X obj 121 467 outlet~;
#X obj 139 388 vline~;
#X obj 121 445 *~;
#X obj 72 169 inlet~;
#X obj 162 324 pack f f;
#X floatatom 221 215 5 0 0 0 - - - 0;
#X floatatom 284 222 5 0 0 0 - - - 0;
#X obj 163 213 t b b;
#X obj 167 262 f 0;
#X obj 232 269 f 33;
#X msg 146 355 1 \$1 0 \, 0 \$2 \$1;
#X obj 285 168 inlet;
#X obj 149 169 inlet;
#X text 222 193 atk;
#X connect 0 0 3 1;
#X connect 2 0 0 0;
#X connect 2 0 0 1;
#X connect 3 0 1 0;
#X connect 4 0 3 0;
#X connect 5 0 11 0;
#X connect 6 0 9 0;
#X connect 7 0 10 0;
#X connect 8 0 9 0;
#X connect 8 1 10 0;
#X connect 9 0 5 0;
#X connect 10 0 5 1;
#X connect 11 0 2 0;
#X connect 12 0 7 0;
#X connect 13 0 8 0;
#X coords 0 565 1 564 150 60 0;
#X restore 37 391 pd envvca (sig!trig!dec);
#X floatatom 561 320 5 0 0 0 - - - 0;
#X text 1006 424 vanilla?_plugdata_pdvst?;
#N canvas 351 87 432 373 spectrolog 0;
#N canvas 556 61 872 789 FFT_Analyse 0;
#X obj 101 102 inlet~;
#X obj 101 332 *~;
#X obj 132 331 *~;
#X obj 101 356 +~;
#X obj 102 377 powtodb~;
#N canvas 0 22 346 535 init_input_window 0;
#X obj 73 217 / 10;
#X obj 55 278 line 0 0.1;
#X msg 119 246 0;
#X obj 54 176 t f f b;
#X obj 54 239 pack;
#X obj 55 301 t f f;
#X obj 54 152 - 1;
#X obj 74 114 t f f;
#X obj 55 359 * 3.14159;
#X obj 55 381 sin;
#X msg 55 401 \$1 \$1;
#X obj 55 423 *;
#X text 119 334 0...0.99;
#X text 128 359 0...pi;
#X text 79 423 hanning;
#X msg 55 88 4096;
#X obj 100 88 f 4096;
#X obj 99 60 bng 15 250 50 0 empty empty empty 0 -6 0 8 #fcfcfc #000000 #000000;
#X obj 99 39 loadbang;
#X obj 74 333 / 4096;
#X obj 55 448 tabwrite \$0-window;
#X text 86 381 half-sine;
#X connect 0 0 4 1;
#X connect 1 0 5 0;
#X connect 2 0 1 0;
#X connect 3 0 4 0;
#X connect 3 1 0 0;
#X connect 3 2 2 0;
#X connect 4 0 1 0;
#X connect 5 0 19 0;
#X connect 5 1 20 1;
#X connect 6 0 3 0;
#X connect 7 0 6 0;
#X connect 7 1 19 1;
#X connect 8 0 9 0;
#X connect 9 0 10 0;
#X connect 10 0 11 0;
#X connect 11 0 20 0;
#X connect 15 0 7 0;
#X connect 16 0 7 0;
#X connect 17 0 16 0;
#X connect 18 0 17 0;
#X connect 19 0 8 0;
#X restore 161 276 pd init_input_window;
#N canvas 0 22 450 300 (subpatch) 0;
#X array \$0-lin_scope 2048 float 0;
#X coords 0 100 2047 0 200 140 1;
#X restore 110 621 graph;
#N canvas 0 22 822 328 init_norm 0;
#X obj 43 230 outlet;
#X obj 43 187 - 100;
#X floatatom 43 208 9 0 0 0 - - - 0;
#X text 108 169 leistung - techn. dB;
#X msg 43 69 4096;
#X obj 80 68 f 4096;
#X obj 80 47 bng 15 250 50 0 empty empty empty 0 -6 0 8 #fcfcfc #000000 #000000;
#X obj 80 26 loadbang;
#X obj 43 167 rmstodb;
#X obj 43 110 / 4;
#X text 74 103 faktor 2 wegen hanning;
#X text 74 114 weiterer faktor 2 \, weil wir nur die;
#X text 73 124 erste haelfte des konjungiert komplexen spektrum sehen;
#X text 108 135 bzw. bearbeiten \, somit nur die haelfte der spektralen energie;
#X connect 1 0 2 0;
#X connect 2 0 0 0;
#X connect 4 0 9 0;
#X connect 5 0 9 0;
#X connect 6 0 5 0;
#X connect 7 0 6 0;
#X connect 8 0 1 0;
#X connect 9 0 8 0;
#X restore 153 421 pd init_norm;
#X obj 100 231 *~;
#X obj 102 443 -~ 60.206;
#X obj 113 517 *~ 0.98;
#X obj 100 539 +~;
#X obj 101 471 *~ 0.02;
#X msg 314 481 1 \$1;
#X obj 314 502 -;
#X obj 314 458 clip 0 1;
#X obj 314 437 / 100;
#X floatatom 314 413 5 0.5 100 0 - - - 0;
#X obj 333 366 loadbang;
#X obj 100 277 fft~;
#X obj 463 557 line 0 0.1;
#X obj 463 602 / 2;
#X obj 463 622 mtof;
#X msg 463 536 6 \, 273 26.7;
#X obj 463 580 t f f;
#X obj 494 602 - 6;
#X obj 463 642 / 44100;
#X obj 463 663 * 4096;
#X msg 656 633 6;
#X obj 656 653 / 2;
#X obj 656 673 mtof;
#X floatatom 656 693 9 0 0 0 - - - 0;
#X text 723 694 Hz;
#X obj 754 654 / 2;
#X obj 754 673 mtof;
#X floatatom 754 693 9 0 0 0 - - - 0;
#X text 822 693 Hz;
#X msg 754 634 273;
#X obj 656 612 t b b;
#X obj 463 498 tgl 15 0 empty empty empty 0 -6 0 8 #fcfcfc #000000 #000000 0 1;
#X obj 463 458 loadbang;
#X msg 463 478 1;
#X obj 656 592 loadbang;
#X obj 468 245 loadbang;
#X obj 703 102 inlet;
#X obj 130 253 table \$0-window 4096;
#X obj 137 214 tabreceive~ \$0-window;
#X text 353 403 temporal lowpass;
#X text 355 415 parameter between 0 .. 100 %;
#X text 23 23 spectrum~;
#X text 120 23 draws the power of a spectrum in a logarithmic scale;
#X text 118 36 (by Thomas Musil);
#X obj 113 496 tabreceive~ \$0-lin_scope;
#X obj 100 564 tabsend~ \$0-lin_scope;
#X obj 463 685 tabread4 \$0-lin_scope;
#X obj 468 267 f \$0;
#X text 553 536 transformation to log scale;
#X msg 333 385 100;
#X obj 314 341 max 0.5;
#X obj 314 319 min 100;
#X obj 440 107 inlet;
#X text 96 81 audio sig;
#X text 700 81 ON/OFF;
#X text 427 86 (0 .. 100);
#X text 408 72 temporal lowpass;
#X obj 533 244 bng 15 250 50 0 empty empty empty 0 -6 0 8 #fcfcfc #000000 #000000;
#X obj 463 735 tabwrite \$0-s;
#X msg 468 296 \; \$1-s xticks 0 12 2;
#X msg 491 330 \; \$1-s yticks 0 5 2;
#X obj 462 516 metro 100;
#X obj 704 166 switch~ 4096 2;
#X obj 463 711 clip 0 100;
#X obj 773 101 loadbang;
#X msg 773 123 1;
#X connect 0 0 8 0;
#X connect 1 0 3 0;
#X connect 2 0 3 1;
#X connect 3 0 4 0;
#X connect 4 0 9 0;
#X connect 7 0 9 1;
#X connect 8 0 19 0;
#X connect 9 0 12 0;
#X connect 10 0 11 1;
#X connect 11 0 53 0;
#X connect 12 0 11 0;
#X connect 13 0 14 0;
#X connect 14 0 10 1;
#X connect 15 0 13 0;
#X connect 15 0 12 1;
#X connect 16 0 15 0;
#X connect 17 0 16 0;
#X connect 18 0 57 0;
#X connect 19 0 1 0;
#X connect 19 0 1 1;
#X connect 19 1 2 0;
#X connect 19 1 2 1;
#X connect 20 0 24 0;
#X connect 21 0 22 0;
#X connect 22 0 26 0;
#X connect 23 0 20 0;
#X connect 24 0 21 0;
#X connect 24 1 25 0;
#X connect 25 0 66 1;
#X connect 26 0 27 0;
#X connect 27 0 54 0;
#X connect 28 0 29 0;
#X connect 29 0 30 0;
#X connect 30 0 31 0;
#X connect 33 0 34 0;
#X connect 34 0 35 0;
#X connect 37 0 33 0;
#X connect 38 0 28 0;
#X connect 38 1 37 0;
#X connect 39 0 69 0;
#X connect 40 0 41 0;
#X connect 41 0 39 0;
#X connect 42 0 38 0;
#X connect 43 0 55 0;
#X connect 44 0 70 0;
#X connect 46 0 8 1;
#X connect 52 0 10 0;
#X connect 54 0 71 0;
#X connect 55 0 67 0;
#X connect 55 0 68 0;
#X connect 57 0 17 0;
#X connect 58 0 17 0;
#X connect 59 0 58 0;
#X connect 60 0 59 0;
#X connect 65 0 55 0;
#X connect 69 0 23 0;
#X connect 71 0 66 0;
#X connect 72 0 73 0;
#X connect 73 0 70 0;
#X restore 17 320 pd FFT_Analyse;
#X obj 63 299 inlet;
#X obj 17 299 inlet~;
#X obj 110 299 inlet;
#N canvas 0 22 450 300 (subpatch) 0;
#X array \$0-s 268 float 0;
#X coords 0 100 267 0 267 140 1;
#X restore 23 27 graph;
#X obj 297 42 cnv 15 1 1 empty empty -10 0 0 0 10 #fcfcfc #000000 0;
#X obj 297 154 cnv 15 1 1 empty empty -90 0 0 0 10 #fcfcfc #000000 0;
#X obj 297 98 cnv 15 1 1 empty empty -50 0 0 0 10 #fcfcfc #000000 0;
#X obj 297 70 cnv 15 1 1 empty empty -30 0 0 0 10 #fcfcfc #000000 0;
#X obj 297 126 cnv 15 1 1 empty empty -70 0 0 0 10 #fcfcfc #000000 0;
#X obj 18 171 cnv 15 1 1 empty empty 10 0 5 0 10 #fcfcfc #000000 0;
#X obj 66 171 cnv 15 1 1 empty empty 40 0 5 0 10 #fcfcfc #000000 0;
#X obj 115 171 cnv 15 1 1 empty empty 160 0 5 0 10 #fcfcfc #000000 0;
#X obj 162 171 cnv 15 1 1 empty empty 640 0 5 0 10 #fcfcfc #000000 0;
#X obj 210 171 cnv 15 1 1 empty empty 2k56 0 5 0 10 #fcfcfc #000000 0;
#X obj 258 171 cnv 15 1 1 empty empty 10k2 0 5 0 10 #fcfcfc #000000 0;
#X obj 138 184 cnv 15 1 1 empty empty 320 0 5 0 10 #fcfcfc #000000 0;
#X obj 282 184 cnv 15 1 1 empty empty 20k5 0 5 0 10 #fcfcfc #000000 0;
#X obj 42 181 cnv 15 1 1 empty empty 20 0 9 0 10 #fcfcfc #000000 0;
#X obj 90 184 cnv 15 1 1 empty empty 80 0 5 0 10 #fcfcfc #000000 0;
#X obj 186 184 cnv 15 1 1 empty empty 1k28 0 5 0 10 #fcfcfc #000000 0;
#X obj 234 184 cnv 15 1 1 empty empty 5k12 0 5 0 10 #fcfcfc #000000 0;
#X obj 46 168 cnv 15 1 1 empty empty | 0 7 0 10 #fcfcfc #000000 0;
#X obj 94 168 cnv 15 1 1 empty empty | 0 7 0 10 #fcfcfc #000000 0;
#X obj 142 168 cnv 15 1 1 empty empty | 0 7 0 10 #fcfcfc #000000 0;
#X obj 190 168 cnv 15 1 1 empty empty | 0 7 0 10 #fcfcfc #000000 0;
#X obj 238 168 cnv 15 1 1 empty empty | 0 7 0 10 #fcfcfc #000000 0;
#X obj 286 168 cnv 15 1 1 empty empty | 0 7 0 10 #fcfcfc #000000 0;
#X connect 1 0 0 1;
#X connect 2 0 0 0;
#X connect 3 0 0 2;
#X coords 0 -1 1 1 330 210 1 0 0;
#X restore 37 525 pd spectrolog;
#N canvas 82 238 826 494 linkslinks_//////////////////// 0;
#X obj 29 422 pdcontrol;
#X msg 34 394 browse http://msp.ucsd.edu;
#X text 308 123 https://msp.ucsd.edu/Pd_documentation/index.htm;
#X text 305 86 https://wiki.sgmk-ssam.ch/wiki/Puredata_(Pd)_Workshop_with_Servando;
#X msg 34 375 browse https://wiki.sgmk-ssam.ch/wiki/Espd;
#X text 126 94;
#X msg 34 356 browse https://sebpiq.github.io/WebPd_website/;
#X text 308 133 http://servando.teks.no;
#X msg 34 337 browse https://github.com/MikeMorenoDSP/awesome-puredata;
#X text 291 48 https://github.com/virtualtam/awesome-puredata?tab=readme-ov-file;
#X text 500 171 https://github.com/rjdj/rjlib;
#X text 499 186 https://github.com/TheTechnobear/Mi4Pd;
#X connect 1 0 0 0;
#X connect 4 0 0 0;
#X connect 6 0 0 0;
#X connect 8 0 0 0;
#X restore 738 241 pd linkslinks_////////////////////;
#X connect 3 0 7 0;
#X connect 3 1 46 0;
#X connect 5 0 40 0;
#X connect 8 0 14 0;
#X connect 8 1 15 0;
#X connect 8 2 16 0;
#X connect 9 0 29 0;
#X connect 11 0 41 0;
#X connect 18 0 21 0;
#X connect 18 0 17 0;
#X connect 21 0 20 0;
#X connect 23 0 3 0;
#X connect 27 0 19 0;
#X connect 29 0 49 0;
#X connect 30 0 29 0;
#X connect 31 0 30 0;
#X connect 33 0 37 0;
#X connect 36 0 33 0;
#X connect 39 0 38 0;
#X connect 44 0 53 0;
#X connect 45 0 44 0;
#X connect 48 0 47 0;
#X connect 50 0 53 1;
#X connect 51 0 53 2;
#X connect 54 0 33 0;
